# xmcd
#
# Track frame offsets: 
#        187
#        22600
#        45877
#        65612
#        87100
#        103375
#        129775
#        159912
#        182030
#        206312
#        229695
#
# Disc length: 3246 seconds
#
# Revision: 2
# Processed by: cddbd v1.5.2PL0 Copyright (c) Steve Scherf et al.
# Submitted via: ExactAudioCopy v1.0b3
#
DISCID=780cac0b
DTITLE=天野清継&国府弘子 - Heaven
DYEAR=1993
DGENRE=Jazz
TTITLE0=September Song
TTITLE1=Winner's Circle
TTITLE2=Cry
TTITLE3=For My Friend
TTITLE4=Simple Pleasures
TTITLE5=Morning
TTITLE6=Monet
TTITLE7=Bahia Skyline
TTITLE8=A Long Way to Heaven
TTITLE9=Steppin' Out
TTITLE10=Etude
EXTD=YEAR: 1993
EXTT0=
EXTT1=
EXTT2=
EXTT3=
EXTT4=
EXTT5=
EXTT6=
EXTT7=
EXTT8=
EXTT9=
EXTT10=
PLAYORDER=
